<svg width="201" height="30" viewBox="0 0 201 30" fill="none" xmlns="http://www.w3.org/2000/svg">
<path d="M1.39205 24.7875V7.51241H4.38152V24.7875H1.39205ZM13.212 25.0613C11.9949 25.0613 10.8843 24.7799 9.88017 24.217C8.89129 23.6541 8.10018 22.8858 7.50685 21.9121C6.92873 20.9384 6.63967 19.8278 6.63967 18.5803C6.63967 17.3328 6.92873 16.2222 7.50685 15.2485C8.10018 14.2749 8.89129 13.5066 9.88017 12.9437C10.8691 12.3808 11.9797 12.0993 13.212 12.0993C14.429 12.0993 15.532 12.3808 16.5209 12.9437C17.5098 13.5066 18.2933 14.2749 18.8714 15.2485C19.4648 16.207 19.7614 17.3176 19.7614 18.5803C19.7614 19.8278 19.4648 20.9384 18.8714 21.9121C18.2781 22.8858 17.487 23.6541 16.4981 24.217C15.5092 24.7799 14.4138 25.0613 13.212 25.0613ZM13.212 22.3229C13.8814 22.3229 14.4671 22.1631 14.9691 21.8436C15.4864 21.5242 15.8896 21.083 16.1786 20.5201C16.4829 19.9419 16.635 19.2954 16.635 18.5803C16.635 17.8501 16.4829 17.2111 16.1786 16.6634C15.8896 16.1005 15.4864 15.6593 14.9691 15.3398C14.4671 15.0051 13.8814 14.8378 13.212 14.8378C12.5273 14.8378 11.9264 15.0051 11.4091 15.3398C10.8919 15.6593 10.4811 16.1005 10.1768 16.6634C9.88778 17.2111 9.74325 17.8501 9.74325 18.5803C9.74325 19.2954 9.88778 19.9419 10.1768 20.5201C10.4811 21.083 10.8919 21.5242 11.4091 21.8436C11.9264 22.1631 12.5273 22.3229 13.212 22.3229ZM28.0987 25.0613C26.8816 25.0613 25.771 24.7799 24.7669 24.217C23.7781 23.6541 22.9869 22.8858 22.3936 21.9121C21.8155 20.9384 21.5264 19.8278 21.5264 18.5803C21.5264 17.3328 21.8155 16.2222 22.3936 15.2485C22.9869 14.2749 23.7781 13.5066 24.7669 12.9437C25.7558 12.3808 26.8664 12.0993 28.0987 12.0993C29.3158 12.0993 30.4188 12.3808 31.4077 12.9437C32.3966 13.5066 33.1801 14.2749 33.7582 15.2485C34.3515 16.207 34.6482 17.3176 34.6482 18.5803C34.6482 19.8278 34.3515 20.9384 33.7582 21.9121C33.1649 22.8858 32.3737 23.6541 31.3849 24.217C30.396 24.7799 29.3006 25.0613 28.0987 25.0613ZM28.0987 22.3229C28.7681 22.3229 29.3538 22.1631 29.8559 21.8436C30.3732 21.5242 30.7763 21.083 31.0654 20.5201C31.3696 19.9419 31.5218 19.2954 31.5218 18.5803C31.5218 17.8501 31.3696 17.2111 31.0654 16.6634C30.7763 16.1005 30.3732 15.6593 29.8559 15.3398C29.3538 15.0051 28.7681 14.8378 28.0987 14.8378C27.4141 14.8378 26.8132 15.0051 26.2959 15.3398C25.7786 15.6593 25.3679 16.1005 25.0636 16.6634C24.7745 17.2111 24.63 17.8501 24.63 18.5803C24.63 19.2954 24.7745 19.9419 25.0636 20.5201C25.3679 21.083 25.7786 21.5242 26.2959 21.8436C26.8132 22.1631 27.4141 22.3229 28.0987 22.3229ZM36.9152 24.7875V7.51241H39.9047V18.8313L38.7637 18.489L44.6057 12.3732H48.3255L43.7386 17.3708L48.4167 24.7875H44.9937L40.9316 18.3521L42.7116 17.987L38.9691 22.0034L39.9047 20.1777V24.7875H36.9152Z" fill="black"/>
<path d="M98.504 25.0613C97.3021 25.0613 96.2296 24.7799 95.2863 24.217C94.3431 23.6388 93.5976 22.8553 93.0499 21.8665C92.5022 20.8776 92.2284 19.7822 92.2284 18.5803C92.2284 17.3632 92.5022 16.2678 93.0499 15.2942C93.5976 14.3205 94.3431 13.5446 95.2863 12.9665C96.2448 12.3884 97.3097 12.0993 98.4812 12.0993C99.4244 12.0993 100.261 12.2895 100.991 12.6698C101.737 13.035 102.323 13.5522 102.749 14.2216L102.292 14.8378V7.51241H105.282V24.7875H102.452V22.3913L102.771 22.9847C102.345 23.6541 101.752 24.1713 100.991 24.5365C100.231 24.8864 99.4016 25.0613 98.504 25.0613ZM98.8235 22.3229C99.5081 22.3229 100.109 22.1631 100.626 21.8436C101.144 21.5242 101.547 21.083 101.836 20.5201C102.14 19.9572 102.292 19.3106 102.292 18.5803C102.292 17.8653 102.14 17.2263 101.836 16.6634C101.547 16.0853 101.144 15.6365 100.626 15.317C100.109 14.9975 99.5081 14.8378 98.8235 14.8378C98.1541 14.8378 97.5531 15.0051 97.0207 15.3398C96.4882 15.6593 96.0698 16.1005 95.7655 16.6634C95.4765 17.2111 95.332 17.8501 95.332 18.5803C95.332 19.3106 95.4765 19.9572 95.7655 20.5201C96.0698 21.083 96.4882 21.5242 97.0207 21.8436C97.5531 22.1631 98.1541 22.3229 98.8235 22.3229ZM113.951 25.0613C112.673 25.0613 111.554 24.7723 110.596 24.1941C109.638 23.616 108.892 22.8325 108.36 21.8436C107.827 20.8548 107.561 19.7594 107.561 18.5575C107.561 17.31 107.827 16.207 108.36 15.2485C108.907 14.2749 109.645 13.5066 110.573 12.9437C111.516 12.3808 112.566 12.0993 113.722 12.0993C114.696 12.0993 115.548 12.2591 116.278 12.5785C117.024 12.898 117.655 13.3392 118.172 13.9021C118.69 14.465 119.085 15.1116 119.359 15.8419C119.633 16.5569 119.77 17.3328 119.77 18.1696C119.77 18.3825 119.755 18.6031 119.724 18.8313C119.709 19.0595 119.671 19.2573 119.61 19.4247H110.025V17.1426H117.921L116.506 18.2152C116.643 17.5154 116.605 16.8916 116.392 16.3439C116.195 15.7962 115.86 15.3626 115.388 15.0432C114.932 14.7237 114.377 14.5639 113.722 14.5639C113.099 14.5639 112.543 14.7237 112.056 15.0432C111.57 15.3474 111.197 15.8038 110.938 16.4124C110.695 17.0057 110.604 17.7284 110.664 18.5803C110.604 19.341 110.702 20.018 110.961 20.6113C111.235 21.1895 111.63 21.6383 112.148 21.9577C112.68 22.2772 113.289 22.437 113.973 22.437C114.658 22.437 115.236 22.2924 115.708 22.0034C116.195 21.7143 116.575 21.3264 116.849 20.8395L119.268 22.0262C119.024 22.6195 118.644 23.1444 118.127 23.6008C117.609 24.0572 116.993 24.4147 116.278 24.6734C115.578 24.932 114.803 25.0613 113.951 25.0613ZM127.695 24.9244C126.296 24.9244 125.208 24.5441 124.432 23.7834C123.671 23.0075 123.291 21.9197 123.291 20.5201V15.0432H121.146V12.3732H121.374C121.983 12.3732 122.454 12.2134 122.789 11.8939C123.124 11.5744 123.291 11.1104 123.291 10.5019V9.54343H126.281V12.3732H129.133V15.0432H126.281V20.3603C126.281 20.7711 126.349 21.121 126.486 21.4101C126.638 21.6991 126.866 21.9197 127.171 22.0718C127.49 22.224 127.893 22.3 128.38 22.3C128.487 22.3 128.608 22.2924 128.745 22.2772C128.897 22.262 129.042 22.2468 129.179 22.2316V24.7875C128.966 24.8179 128.722 24.8483 128.448 24.8788C128.175 24.9092 127.924 24.9244 127.695 24.9244ZM137.239 25.0613C135.961 25.0613 134.843 24.7723 133.884 24.1941C132.926 23.616 132.18 22.8325 131.648 21.8436C131.116 20.8548 130.849 19.7594 130.849 18.5575C130.849 17.31 131.116 16.207 131.648 15.2485C132.196 14.2749 132.934 13.5066 133.862 12.9437C134.805 12.3808 135.855 12.0993 137.011 12.0993C137.984 12.0993 138.836 12.2591 139.567 12.5785C140.312 12.898 140.944 13.3392 141.461 13.9021C141.978 14.465 142.374 15.1116 142.647 15.8419C142.921 16.5569 143.058 17.3328 143.058 18.1696C143.058 18.3825 143.043 18.6031 143.013 18.8313C142.997 19.0595 142.959 19.2573 142.898 19.4247H133.314V17.1426H141.21L139.795 18.2152C139.932 17.5154 139.894 16.8916 139.681 16.3439C139.483 15.7962 139.148 15.3626 138.677 15.0432C138.22 14.7237 137.665 14.5639 137.011 14.5639C136.387 14.5639 135.832 14.7237 135.345 15.0432C134.858 15.3474 134.485 15.8038 134.227 16.4124C133.983 17.0057 133.892 17.7284 133.953 18.5803C133.892 19.341 133.991 20.018 134.25 20.6113C134.523 21.1895 134.919 21.6383 135.436 21.9577C135.969 22.2772 136.577 22.437 137.262 22.437C137.946 22.437 138.525 22.2924 138.996 22.0034C139.483 21.7143 139.863 21.3264 140.137 20.8395L142.556 22.0262C142.313 22.6195 141.932 23.1444 141.415 23.6008C140.898 24.0572 140.282 24.4147 139.567 24.6734C138.867 24.932 138.091 25.0613 137.239 25.0613ZM151.303 25.0613C150.071 25.0613 148.96 24.7799 147.972 24.217C146.998 23.6388 146.23 22.863 145.667 21.8893C145.104 20.9004 144.822 19.7898 144.822 18.5575C144.822 17.3252 145.104 16.2222 145.667 15.2485C146.23 14.2749 146.998 13.5066 147.972 12.9437C148.96 12.3808 150.071 12.0993 151.303 12.0993C152.186 12.0993 153.007 12.2591 153.768 12.5785C154.529 12.8828 155.183 13.3088 155.73 13.8565C156.293 14.389 156.697 15.0279 156.94 15.7734L154.316 16.9144C154.087 16.2907 153.699 15.7886 153.152 15.4083C152.619 15.0279 152.003 14.8378 151.303 14.8378C150.649 14.8378 150.063 14.9975 149.546 15.317C149.044 15.6365 148.649 16.0777 148.359 16.6406C148.07 17.2035 147.926 17.8501 147.926 18.5803C147.926 19.3106 148.07 19.9572 148.359 20.5201C148.649 21.083 149.044 21.5242 149.546 21.8436C150.063 22.1631 150.649 22.3229 151.303 22.3229C152.018 22.3229 152.642 22.1327 153.175 21.7524C153.707 21.372 154.087 20.8624 154.316 20.2234L156.94 21.4101C156.697 22.1099 156.301 22.7412 155.753 23.3041C155.206 23.8518 154.551 24.2854 153.791 24.6049C153.03 24.9092 152.201 25.0613 151.303 25.0613ZM164.868 24.9244C163.468 24.9244 162.38 24.5441 161.604 23.7834C160.844 23.0075 160.463 21.9197 160.463 20.5201V15.0432H158.318V12.3732H158.546C159.155 12.3732 159.627 12.2134 159.961 11.8939C160.296 11.5744 160.463 11.1104 160.463 10.5019V9.54343H163.453V12.3732H166.305V15.0432H163.453V20.3603C163.453 20.7711 163.521 21.121 163.658 21.4101C163.81 21.6991 164.039 21.9197 164.343 22.0718C164.662 22.224 165.066 22.3 165.552 22.3C165.659 22.3 165.781 22.2924 165.917 22.2772C166.07 22.262 166.214 22.2468 166.351 22.2316V24.7875C166.138 24.8179 165.895 24.8483 165.621 24.8788C165.347 24.9092 165.096 24.9244 164.868 24.9244ZM168.635 24.7875V12.3732H171.625V24.7875H168.635ZM168.635 10.9811V7.78626H171.625V10.9811H168.635ZM178.127 24.7875L173.244 12.3732H176.507L180.044 22.1403H178.835L182.395 12.3732H185.658L180.774 24.7875H178.127ZM192.975 25.0613C191.697 25.0613 190.579 24.7723 189.621 24.1941C188.662 23.616 187.917 22.8325 187.384 21.8436C186.852 20.8548 186.585 19.7594 186.585 18.5575C186.585 17.31 186.852 16.207 187.384 15.2485C187.932 14.2749 188.67 13.5066 189.598 12.9437C190.541 12.3808 191.591 12.0993 192.747 12.0993C193.721 12.0993 194.573 12.2591 195.303 12.5785C196.048 12.898 196.68 13.3392 197.197 13.9021C197.714 14.465 198.11 15.1116 198.384 15.8419C198.657 16.5569 198.794 17.3328 198.794 18.1696C198.794 18.3825 198.779 18.6031 198.749 18.8313C198.734 19.0595 198.696 19.2573 198.635 19.4247H189.05V17.1426H196.946L195.531 18.2152C195.668 17.5154 195.63 16.8916 195.417 16.3439C195.219 15.7962 194.885 15.3626 194.413 15.0432C193.956 14.7237 193.401 14.5639 192.747 14.5639C192.123 14.5639 191.568 14.7237 191.081 15.0432C190.594 15.3474 190.222 15.8038 189.963 16.4124C189.719 17.0057 189.628 17.7284 189.689 18.5803C189.628 19.341 189.727 20.018 189.986 20.6113C190.26 21.1895 190.655 21.6383 191.172 21.9577C191.705 22.2772 192.313 22.437 192.998 22.437C193.683 22.437 194.261 22.2924 194.732 22.0034C195.219 21.7143 195.6 21.3264 195.873 20.8395L198.292 22.0262C198.049 22.6195 197.669 23.1444 197.151 23.6008C196.634 24.0572 196.018 24.4147 195.303 24.6734C194.603 24.932 193.827 25.0613 192.975 25.0613Z" fill="black"/>
<path d="M77.3105 7.08704L79.3672 28.3468H57.6396L59.6963 7.08704H77.3105Z" stroke="#3BD43D" stroke-width="3.14961"/>
<path d="M72.4409 5.51184C72.4409 4.46768 72.0261 3.46628 71.2878 2.72795C70.5495 1.98962 69.5481 1.57483 68.5039 1.57483C67.4597 1.57483 66.4584 1.98962 65.72 2.72795C64.9817 3.46628 64.5669 4.46768 64.5669 5.51184" stroke="#3BD43D" stroke-width="3.14961" stroke-linecap="round"/>
<path d="M80.4604 7.08704L82.5171 28.3468H60.7896L62.8462 7.08704H80.4604Z" stroke="#FF3DC7" stroke-width="3.14961"/>
<path d="M75.5903 5.51184C75.5903 4.46768 75.1755 3.46628 74.4372 2.72795C73.6989 1.98962 72.6975 1.57483 71.6533 1.57483C70.6092 1.57483 69.6078 1.98962 68.8694 2.72795C68.1311 3.46628 67.7163 4.46768 67.7163 5.51184" stroke="#FF3DC7" stroke-width="3.14961" stroke-linecap="round"/>
<path d="M78.8857 7.08704L80.9424 28.3468H59.2148L61.2715 7.08704H78.8857Z" stroke="black" stroke-width="3.14961"/>
<path d="M74.0156 13.3859C74.0156 14.43 73.6008 15.4314 72.8625 16.1697C72.1242 16.9081 71.1228 17.3229 70.0786 17.3229C69.0345 17.3229 68.0331 16.9081 67.2947 16.1697C66.5564 15.4314 66.1416 14.43 66.1416 13.3859" stroke="black" stroke-width="3.14961"/>
<path d="M74.0156 5.51184C74.0156 4.46768 73.6008 3.46628 72.8625 2.72795C72.1242 1.98962 71.1228 1.57483 70.0786 1.57483C69.0345 1.57483 68.0331 1.98962 67.2947 2.72795C66.5564 3.46628 66.1416 4.46768 66.1416 5.51184" stroke="black" stroke-width="3.14961" stroke-linecap="round"/>
</svg>
